<?xml version="1.0" encoding="iso-8859-1"?>
<!-- Generator: Adobe Illustrator 19.0.0, SVG Export Plug-In . SVG Version: 6.00 Build 0)  -->
<svg version="1.1" id="Layer_1" xmlns="http://www.w3.org/2000/svg" xmlns:xlink="http://www.w3.org/1999/xlink" x="0px" y="0px"
	 viewBox="0 0 511.36 511.36" style="enable-background:new 0 0 511.36 511.36;" xml:space="preserve">
<g transform="translate(0 1)">
	<g>
		<g>
			<path d="M247.467,276.013h-102.4c-5.12,0-8.533,3.413-8.533,8.533v102.4c0,5.12,3.413,8.533,8.533,8.533h102.4
				c5.12,0,8.533-3.413,8.533-8.533v-102.4C256,279.427,252.587,276.013,247.467,276.013z M238.933,327.213H204.8V293.08h34.133
				V327.213z M187.733,293.08v34.133H153.6V293.08H187.733z M153.6,344.28h34.133v34.133H153.6V344.28z M204.8,378.413V344.28
				h34.133v34.133H204.8z"/>
			<path d="M349.867,386.947h-8.533c-5.12,0-8.533,3.413-8.533,8.533s3.413,8.533,8.533,8.533h8.533c5.12,0,8.533-3.413,8.533-8.533
				S354.987,386.947,349.867,386.947z"/>
			<path d="M494.933,463.747h-34.087l0.758-140.281c12.81-0.123,25.45-5.023,35.036-15.026c19.627-20.48,19.627-52.907,0-72.533
				l-44.373-44.373V113.88c0-9.387,5.12-15.36,9.387-19.627c5.12-4.267,9.387-10.24,7.68-20.48
				c-2.56-11.947-12.8-19.627-26.453-19.627h-22.426c2.963-5.087,8.466-8.533,14.746-8.533c18.773,0,34.133-15.36,34.133-34.133
				c0-5.12-3.413-8.533-8.533-8.533c-5.12,0-8.533,3.413-8.533,8.533c0,9.387-7.68,17.067-17.067,17.067
				c-15.83,0-29.232,10.921-33.046,25.6H376.32c-13.653,0-23.893,7.68-26.453,19.627c-0.853,7.68,1.707,15.36,7.68,21.333
				c3.655,3.198,6.077,6.153,7.548,9.255L312.32,51.587c-31.573-31.573-81.92-31.573-113.493,0L44.373,206.04
				C16.213,235.053,0,273.453,0,314.413v66.56c0,19.627,14.507,34.987,32.427,35.84c0.853,0,0.853,0,1.707,0
				c5.875,0,11.749-1.618,17.067-4.575v51.508H17.067c-5.12,0-8.533,3.413-8.533,8.533v25.6c0,5.12,3.413,8.533,8.533,8.533h477.867
				c5.12,0,8.533-3.413,8.533-8.533v-25.6C503.467,467.16,500.053,463.747,494.933,463.747z M369.493,83.16
				c-2.56-2.56-2.56-4.267-2.56-6.827c0.853-5.12,7.68-5.12,9.387-5.12h66.56c1.707,0,8.533,0,9.387,5.12c0,1.707,0,2.56-2.56,5.973
				c-9.387,8.533-14.507,20.48-14.507,31.573v60.587l-51.2-51.2h0v-9.387C384,102.787,378.88,92.547,369.493,83.16z M46.08,395.48
				c-3.413,2.56-7.68,4.267-12.8,4.267c-9.387-0.853-16.213-9.387-16.213-18.773v-66.56c0-35.84,13.653-70.827,39.253-96.427
				l155.307-153.6c11.947-12.8,28.16-18.773,44.373-18.773s32.427,5.973,44.373,17.92l66.56,66.56l85.333,85.333l32.427,32.427
				c13.653,13.653,13.653,34.987,0,48.64c-5.973,6.827-15.36,10.24-23.893,10.24c-1.381,0-2.761-0.099-4.135-0.278
				c-0.572-0.246-1.182-0.444-1.838-0.575c-1.707-0.853-3.413-0.853-5.12-1.707c0,0-0.853,0-1.707-0.853
				c-1.707,0-2.56-0.853-4.267-1.707c-0.853,0-0.853-0.853-1.707-0.853c-0.054-0.036-0.096-0.066-0.148-0.101
				c-1.733-1.21-3.399-2.593-4.972-4.166L298.667,157.4c-11.093-11.947-26.453-17.92-42.667-17.92s-31.573,6.827-42.667,17.92
				l-84.48,84.48c-17.067,17.067-26.453,40.107-26.453,64v32.427c0,10.24-7.68,17.92-16.213,18.773
				c-5.12,0.853-9.387-0.853-12.8-4.267c-3.413-3.413-5.12-7.68-5.12-12.8s-3.413-8.533-8.533-8.533s-8.533,3.413-8.533,8.533
				v42.667C51.2,387.8,49.493,392.067,46.08,395.48z M68.267,382.68v-12.8c5.12,3.413,11.947,4.267,18.773,4.267
				c17.92-0.853,32.427-17.067,32.427-35.84V305.88c0-19.627,7.68-38.4,21.333-52.053l84.48-84.48
				c8.533-8.533,18.773-12.8,30.72-12.8s22.187,4.267,30.72,12.8L424.107,308.44c3.203,3.069,6.697,5.679,10.389,7.82
				c1.658,1.609,3.339,2.445,5.824,3.273c0.853,0,1.707,0.853,2.56,0.853h0.523c0.11,0.039,0.22,0.083,0.331,0.122v143.238H384
				v-179.2c0-5.12-3.413-8.533-8.533-8.533h-102.4c-5.12,0-8.533,3.413-8.533,8.533v179.2H68.267V382.68z M366.933,463.747H281.6
				V293.08h85.333V463.747z M486.4,489.347H25.6v-8.533h34.133h213.333h102.4h76.8H486.4V489.347z"/>
			<path d="M324.267,369.88c18.773,0,34.133-15.36,34.133-34.133c0-18.773-15.36-34.133-34.133-34.133
				c-18.773,0-34.133,15.36-34.133,34.133C290.133,354.52,305.493,369.88,324.267,369.88z M324.267,318.68
				c9.387,0,17.067,7.68,17.067,17.067s-7.68,17.067-17.067,17.067s-17.067-7.68-17.067-17.067S314.88,318.68,324.267,318.68z"/>
			<path d="M384,45.613c5.12,0,8.533-3.413,8.533-8.533c0-9.387,7.68-17.067,17.067-17.067c5.12,0,8.533-3.413,8.533-8.533
				s-3.413-8.533-8.533-8.533c-18.773,0-34.133,15.36-34.133,34.133C375.467,42.2,378.88,45.613,384,45.613z"/>
			<path d="M59.733,310.147c5.12,0,8.533-3.413,8.533-8.533v-11.947c0-10.24,4.267-18.773,13.653-25.6
				c3.413-2.56,4.267-8.533,1.707-11.947s-8.533-4.267-11.947-1.707c-13.653,9.387-20.48,23.04-20.48,38.4v12.8
				C51.2,306.733,54.613,310.147,59.733,310.147z"/>
		</g>
	</g>
</g>
<g>
</g>
<g>
</g>
<g>
</g>
<g>
</g>
<g>
</g>
<g>
</g>
<g>
</g>
<g>
</g>
<g>
</g>
<g>
</g>
<g>
</g>
<g>
</g>
<g>
</g>
<g>
</g>
<g>
</g>
</svg>
