<?xml version="1.0" encoding="iso-8859-1"?>
<!-- Generator: Adobe Illustrator 18.0.0, SVG Export Plug-In . SVG Version: 6.00 Build 0)  -->
<!DOCTYPE svg PUBLIC "-//W3C//DTD SVG 1.1//EN" "http://www.w3.org/Graphics/SVG/1.1/DTD/svg11.dtd">
<svg version="1.1" id="Capa_1" xmlns="http://www.w3.org/2000/svg" xmlns:xlink="http://www.w3.org/1999/xlink" x="0px" y="0px"
	 viewBox="0 0 73.091 73.091" style="enable-background:new 0 0 73.091 73.091;" xml:space="preserve">
<path style="fill:#231F20;" d="M19.03,21.479c0.021-0.675,0.081-2.73,1.542-3.282c1.444-0.55,2.928,0.934,3.211,1.236
	c0.377,0.404,0.355,1.037-0.048,1.414c-0.4,0.376-1.034,0.357-1.413-0.047c-0.339-0.358-0.858-0.708-1.067-0.722
	c0.015,0.034-0.192,0.359-0.225,1.459c-0.107,3.65,2.681,4.669,2.8,4.711c0.311,0.109,0.556,0.366,0.642,0.684l0.045,0.165
	c0.016,0.059,0.026,0.119,0.031,0.179c0.81,9.646,8.438,12.767,12.006,12.767s11.196-3.121,12.006-12.767
	c0.005-0.061,0.016-0.121,0.031-0.179l0.045-0.165c0.088-0.323,0.331-0.58,0.648-0.686c0.112-0.039,2.9-1.059,2.793-4.708
	c-0.036-1.233-0.292-1.493-0.294-1.496c-0.109,0.032-0.666,0.403-0.998,0.758c-0.379,0.404-1.013,0.423-1.413,0.047
	c-0.403-0.377-0.425-1.01-0.048-1.414c0.283-0.302,1.765-1.785,3.211-1.236c1.461,0.552,1.521,2.606,1.542,3.282
	c0.106,3.633-2.034,5.643-3.567,6.415c-1.038,9.755-8.731,14.149-13.956,14.149s-12.918-4.394-13.956-14.149
	C21.064,27.122,18.923,25.112,19.03,21.479z M58.005,55.039c1.179,1.185,1.17,2.843,1.161,4.306l-0.001,6.814
	c0,2.961-2.408,5.37-5.369,5.37s-5.37-2.409-5.37-5.37l-0.001-6.814c-0.009-1.463-0.018-3.122,1.161-4.306
	c0.88-0.885,2.257-1.315,4.21-1.315C55.748,53.724,57.125,54.154,58.005,55.039z M57.166,59.334
	c0.007-1.178,0.013-2.291-0.579-2.885c-0.479-0.481-1.418-0.726-2.791-0.726c-1.374,0-2.313,0.244-2.792,0.726
	c-0.39,0.392-0.511,1.019-0.553,1.731h2.256c0.553,0,1,0.448,1,1s-0.447,1-1,1h-2.282l0,1.752h2.282c0.553,0,1,0.448,1,1
	s-0.447,1-1,1h-2.282l0,1.622h2.281c0.553,0,1,0.448,1,1s-0.447,1-1,1h-1.97c0.532,1.162,1.699,1.975,3.059,1.975
	c1.857,0,3.369-1.512,3.369-3.37L57.166,59.334z M23.514,55.039c1.179,1.185,1.17,2.843,1.161,4.306l-0.001,6.814
	c0,2.961-2.409,5.37-5.37,5.37s-5.369-2.409-5.369-5.37l-0.001-6.815c-0.009-1.463-0.018-3.121,1.16-4.305
	c0.88-0.885,2.258-1.315,4.21-1.315C21.257,53.724,22.634,54.154,23.514,55.039z M22.363,67.555h-1.97c-0.553,0-1-0.448-1-1
	s0.447-1,1-1h2.281l0-1.622h-2.282c-0.553,0-1-0.448-1-1s0.447-1,1-1h2.282l0-1.752h-2.282c-0.553,0-1-0.448-1-1s0.447-1,1-1h2.256
	c-0.042-0.712-0.163-1.339-0.553-1.731c-0.479-0.482-1.418-0.726-2.792-0.726s-2.313,0.244-2.792,0.726
	c-0.591,0.595-0.585,1.707-0.578,2.884l0.001,6.827c0,1.858,1.512,3.37,3.369,3.37C20.663,69.53,21.83,68.717,22.363,67.555z
	 M45.963,23.627c0.269,0,0.525,0.108,0.713,0.299c0.188,0.191,0.292,0.45,0.287,0.718c-0.017,0.935-0.177,4.071-1.551,5.188
	c-0.878,0.713-2.248,1.156-3.576,1.156c-1.269,0-2.335-0.402-3.002-1.132c-0.721-0.79-1.201-2.447-1.475-3.678h-1.612
	c-0.274,1.231-0.754,2.888-1.475,3.678c-0.667,0.73-1.733,1.132-3.002,1.132c-1.328,0-2.698-0.443-3.576-1.156
	c-1.374-1.117-1.534-4.253-1.551-5.188c-0.005-0.268,0.099-0.527,0.287-0.718c0.188-0.191,0.444-0.299,0.713-0.299h7.882
	c0.292,0,0.569,0.127,0.759,0.349c0.051,0.06,0.074,0.134,0.109,0.203h1.321c0.035-0.068,0.058-0.143,0.109-0.203
	c0.189-0.221,0.467-0.349,0.759-0.349H45.963z M33.818,25.627h-5.611c0.122,1.191,0.404,2.374,0.749,2.654
	c0.521,0.423,1.451,0.708,2.314,0.708c0.69,0,1.246-0.175,1.525-0.481C33.171,28.096,33.56,26.799,33.818,25.627z M44.9,25.627
	h-5.611c0.258,1.172,0.646,2.469,1.022,2.88c0.279,0.306,0.835,0.481,1.525,0.481c0.863,0,1.794-0.284,2.314-0.708
	C44.495,28,44.778,26.818,44.9,25.627z M47.694,57.093v11.875c0,0.552-0.447,1-1,1H26.37c-0.553,0-1-0.448-1-1V57.093
	c0-0.552,0.447-1,1-1h20.323C47.246,56.093,47.694,56.541,47.694,57.093z M45.694,58.093H27.37v9.875h18.323V58.093z M31.782,63.03
	c0-2.619,2.131-4.75,4.75-4.75s4.75,2.131,4.75,4.75s-2.131,4.75-4.75,4.75S31.782,65.649,31.782,63.03z M33.782,63.03
	c0,1.517,1.233,2.75,2.75,2.75s2.75-1.233,2.75-2.75s-1.233-2.75-2.75-2.75S33.782,61.514,33.782,63.03z M39.94,47.447
	c0.303,0,0.589,0.137,0.779,0.373c0.189,0.236,0.263,0.545,0.197,0.841l-1.157,5.277c-0.101,0.458-0.507,0.786-0.977,0.786h-4.5
	c-0.47,0-0.876-0.327-0.977-0.786l-1.157-5.277c-0.065-0.296,0.008-0.605,0.197-0.841c0.19-0.236,0.477-0.373,0.779-0.373H39.94z
	 M38.697,49.447h-4.328l0.719,3.277h2.891L38.697,49.447z M22.113,40.86l0.237,3.601c0.021,0.33,0.205,0.628,0.49,0.796
	c0.156,0.092,0.332,0.139,0.508,0.139c0.145,0,0.29-0.031,0.425-0.095l4.778-2.243c0.5-0.235,0.715-0.83,0.48-1.33
	c-0.233-0.5-0.831-0.715-1.33-0.48l-3.452,1.621l-0.282-4.295c-0.037-0.551-0.518-0.964-1.063-0.933
	c-0.552,0.037-0.969,0.513-0.933,1.063l0.007,0.113c-3.562,1.167-18.435,7.585-18.435,33.273c0,0.552,0.447,1,1,1s1-0.448,1-1
	C5.543,48.343,18.286,42.177,22.113,40.86z M51.127,38.822l0.008-0.118c0.036-0.551-0.381-1.027-0.933-1.063
	c-0.55-0.032-1.027,0.381-1.063,0.933l-0.282,4.295l-3.452-1.621c-0.504-0.235-1.096-0.019-1.33,0.48
	c-0.234,0.5-0.02,1.095,0.48,1.33l4.778,2.243c0.135,0.063,0.28,0.095,0.425,0.095c0.176,0,0.352-0.046,0.508-0.139
	c0.285-0.168,0.469-0.466,0.49-0.796l0.236-3.58c3.804,1.377,16.556,7.744,16.556,31.209c0,0.552,0.447,1,1,1s1-0.448,1-1
	C69.548,46.436,54.714,40.002,51.127,38.822z M21.146,15.983c-0.216-0.19-0.341-0.462-0.341-0.75c0-7.489,0-15.234,15.656-15.234
	c15.516,0,15.654,7.607,15.655,15.034c0.013,0.065,0.02,0.132,0.02,0.2c0,0.552-0.447,1-1,1c-0.005,0.001-0.01,0-0.02,0
	c-0.041,0-0.083-0.002-0.124-0.008l-0.004,0c-0.112-0.014-0.213-0.062-0.313-0.111c-0.036,0.025-0.062,0.061-0.102,0.082
	l-3.908,2.011c-0.142,0.073-0.299,0.111-0.457,0.111c-0.056,0-0.112-0.005-0.168-0.014c-6.048-1.028-12.707-1.028-18.753,0
	c-0.202,0.032-0.406,0.006-0.591-0.08l-4.314-2.011c-0.045-0.021-0.075-0.059-0.116-0.085c-0.099,0.047-0.205,0.081-0.332,0.097
	C21.644,16.264,21.361,16.173,21.146,15.983z M48.56,14.984c-2.469-0.894-7.187-2.072-12.074-1.968
	c-0.281-0.006-0.512-0.008-0.743-0.008c-4.582,0-8.91,1.084-11.3,1.959l2.819,1.314c6.071-0.995,12.714-0.996,18.785-0.003
	L48.56,14.984z M22.812,13.476c2.875-1.283,8.457-2.593,13.674-2.458c0.197-0.006,0.445-0.009,0.692-0.009
	c4.975,0,10.193,1.246,12.932,2.467C50.028,6.935,49.014,2,36.461,2C23.907,2,22.894,6.935,22.812,13.476z"/>
<g>
</g>
<g>
</g>
<g>
</g>
<g>
</g>
<g>
</g>
<g>
</g>
<g>
</g>
<g>
</g>
<g>
</g>
<g>
</g>
<g>
</g>
<g>
</g>
<g>
</g>
<g>
</g>
<g>
</g>
</svg>
